<svg xmlns="http://www.w3.org/2000/svg" width="42.112" height="56.633"><path data-name="Path 13965" d="M39.207 1.452h-26.6L0 14.521v39.208h39.207Z" fill="#f90"/><path data-name="Path 13966" d="M37.755 2.9a1.452 1.452 0 0 1 1.452 1.452v47.92a1.452 1.452 0 0 1-1.452 1.452h-33.4A1.452 1.452 0 0 1 2.9 52.277V15.724a1.453 1.453 0 0 1 .43-1.024L14.7 3.33a1.453 1.453 0 0 1 1.027-.425Zm4.356 1.452A4.356 4.356 0 0 0 37.755 0H15.724a4.356 4.356 0 0 0-3.08 1.276L1.276 12.644A4.357 4.357 0 0 0 0 15.724v36.553a4.356 4.356 0 0 0 4.356 4.356h33.4a4.356 4.356 0 0 0 4.356-4.356Z" fill="#fff" fill-rule="evenodd"/><path data-name="Path 13967" d="M13.069 13.069V1.452h2.9v14.521H1.452v-2.9Z" fill="#fff" fill-rule="evenodd"/><path data-name="Path 13968" d="M33.399 30.49H8.713v-2.9h24.686Zm0 6.535H8.713v-2.9h24.686Zm-10.165 6.538H8.713v-2.9h14.521Z" fill="#fff" fill-rule="evenodd"/></svg>